# xmcd
#
# Track frame offsets:
#	150
#	15320
#	33776
#	50195
#	70610
#	94697
#	113750
#	132608
#	152250
#	168703
#	187275
#	205033
#	222981
#	242360
#	258430
#	275965
#	294732
#	326457
#
# Disc length: 4367 seconds
#
# Revision: 1
# Processed by: cddbd v1.5.2PL0 Copyright (c) Steve Scherf et al.
# Submitted via: audiograbber 1.83.01
#
DISCID=0a110d12
DTITLE=Chartbusters - Country 500 Vol.1 d.26 8532-26
DYEAR=1900
DGENRE=karaoke
TTITLE0=Toby Keith - Angry American
TTITLE1=Aaron Tippin - Where the Stars and Stripes and the Eagle Fly
TTITLE2=Billy Gilman - Billy Gilman
TTITLE3=Brooks and Dunn - Only in America
TTITLE4=Alan Jackson - Where Were You
TTITLE5=Sara Evans - Perfect
TTITLE6=Joe Nichols - Brokenheartsville
TTITLE7=Tim McGraw - She's my kind of rain
TTITLE8=Reba McIntire - I'm A Survivor
TTITLE9=Keith Urben - Raining on Sunday
TTITLE10=Jimmy Wayne - Stay Gone
TTITLE11=Clay Walker - A Few Questions
TTITLE12=Martina McBride - This One's for the Girls
TTITLE13=George Strait - The Best Day
TTITLE14=Shane Minor - I think you're beautifulTrack 15
TTITLE15=Jamie O'Neal - There is No ArizonaTrack 16
TTITLE16=Soggy Bottom Boys - I am a man of constant sorrow
TTITLE17=data - Track
EXTD=
EXTT0=
EXTT1=
EXTT2=
EXTT3=
EXTT4=
EXTT5=
EXTT6=
EXTT7=
EXTT8=
EXTT9=
EXTT10=
EXTT11=
EXTT12=
EXTT13=
EXTT14=
EXTT15=
EXTT16=
EXTT17=
PLAYORDER=
